<mxfile host="app.diagrams.net" agent="Mozilla/5.0 (Windows NT 10.0; Win64; x64) AppleWebKit/537.36 (KHTML, like Gecko) Chrome/135.0.0.0 Safari/537.36" version="26.2.6">
  <diagram id="C5RBs43oDa-KdzZeNtuy" name="Page-1">
    <mxGraphModel dx="403" dy="454" grid="1" gridSize="10" guides="1" tooltips="1" connect="1" arrows="1" fold="1" page="1" pageScale="1" pageWidth="827" pageHeight="1169" math="0" shadow="0">
      <root>
        <mxCell id="WIyWlLk6GJQsqaUBKTNV-0" />
        <mxCell id="WIyWlLk6GJQsqaUBKTNV-1" parent="WIyWlLk6GJQsqaUBKTNV-0" />
        <mxCell id="WIyWlLk6GJQsqaUBKTNV-2" value="" style="rounded=0;html=1;jettySize=auto;orthogonalLoop=1;fontSize=11;endArrow=block;endFill=0;endSize=8;strokeWidth=1;shadow=0;labelBackgroundColor=none;edgeStyle=orthogonalEdgeStyle;" parent="WIyWlLk6GJQsqaUBKTNV-1" source="WIyWlLk6GJQsqaUBKTNV-3" edge="1">
          <mxGeometry relative="1" as="geometry">
            <mxPoint x="220" y="170" as="targetPoint" />
          </mxGeometry>
        </mxCell>
        <mxCell id="WIyWlLk6GJQsqaUBKTNV-3" value="Start" style="rounded=1;whiteSpace=wrap;html=1;fontSize=12;glass=0;strokeWidth=1;shadow=0;" parent="WIyWlLk6GJQsqaUBKTNV-1" vertex="1">
          <mxGeometry x="160" y="70" width="120" height="40" as="geometry" />
        </mxCell>
        <mxCell id="WIyWlLk6GJQsqaUBKTNV-11" value="End" style="rounded=1;whiteSpace=wrap;html=1;fontSize=12;glass=0;strokeWidth=1;shadow=0;" parent="WIyWlLk6GJQsqaUBKTNV-1" vertex="1">
          <mxGeometry x="160" y="1000" width="120" height="40" as="geometry" />
        </mxCell>
        <mxCell id="drZaQz-W_NnIEaDeXwBa-2" style="edgeStyle=orthogonalEdgeStyle;rounded=0;orthogonalLoop=1;jettySize=auto;html=1;exitX=0.5;exitY=1;exitDx=0;exitDy=0;entryX=0.5;entryY=0;entryDx=0;entryDy=0;" parent="WIyWlLk6GJQsqaUBKTNV-1" source="drZaQz-W_NnIEaDeXwBa-0" target="drZaQz-W_NnIEaDeXwBa-1" edge="1">
          <mxGeometry relative="1" as="geometry" />
        </mxCell>
        <mxCell id="drZaQz-W_NnIEaDeXwBa-0" value="int i = n -1" style="rounded=0;whiteSpace=wrap;html=1;" parent="WIyWlLk6GJQsqaUBKTNV-1" vertex="1">
          <mxGeometry x="145" y="170" width="150" height="60" as="geometry" />
        </mxCell>
        <mxCell id="drZaQz-W_NnIEaDeXwBa-3" style="edgeStyle=orthogonalEdgeStyle;rounded=0;orthogonalLoop=1;jettySize=auto;html=1;" parent="WIyWlLk6GJQsqaUBKTNV-1" source="drZaQz-W_NnIEaDeXwBa-1" edge="1">
          <mxGeometry relative="1" as="geometry">
            <mxPoint x="220" y="399.9999999999999" as="targetPoint" />
          </mxGeometry>
        </mxCell>
        <mxCell id="drZaQz-W_NnIEaDeXwBa-1" value="int j = n -1" style="rounded=0;whiteSpace=wrap;html=1;" parent="WIyWlLk6GJQsqaUBKTNV-1" vertex="1">
          <mxGeometry x="132.5" y="280" width="175" height="60" as="geometry" />
        </mxCell>
        <mxCell id="drZaQz-W_NnIEaDeXwBa-8" style="edgeStyle=orthogonalEdgeStyle;rounded=0;orthogonalLoop=1;jettySize=auto;html=1;exitX=0.5;exitY=1;exitDx=0;exitDy=0;" parent="WIyWlLk6GJQsqaUBKTNV-1" source="drZaQz-W_NnIEaDeXwBa-4" edge="1">
          <mxGeometry relative="1" as="geometry">
            <mxPoint x="219.8275862068965" y="520" as="targetPoint" />
          </mxGeometry>
        </mxCell>
        <mxCell id="drZaQz-W_NnIEaDeXwBa-12" value="Yes" style="edgeLabel;html=1;align=center;verticalAlign=middle;resizable=0;points=[];" parent="drZaQz-W_NnIEaDeXwBa-8" vertex="1" connectable="0">
          <mxGeometry x="-0.3287" y="2" relative="1" as="geometry">
            <mxPoint as="offset" />
          </mxGeometry>
        </mxCell>
        <mxCell id="drZaQz-W_NnIEaDeXwBa-18" style="edgeStyle=orthogonalEdgeStyle;rounded=0;orthogonalLoop=1;jettySize=auto;html=1;exitX=1;exitY=0.5;exitDx=0;exitDy=0;entryX=1;entryY=0.5;entryDx=0;entryDy=0;" parent="WIyWlLk6GJQsqaUBKTNV-1" source="drZaQz-W_NnIEaDeXwBa-4" target="drZaQz-W_NnIEaDeXwBa-16" edge="1">
          <mxGeometry relative="1" as="geometry" />
        </mxCell>
        <mxCell id="drZaQz-W_NnIEaDeXwBa-19" value="No" style="edgeLabel;html=1;align=center;verticalAlign=middle;resizable=0;points=[];" parent="drZaQz-W_NnIEaDeXwBa-18" vertex="1" connectable="0">
          <mxGeometry x="0.2035" y="3" relative="1" as="geometry">
            <mxPoint as="offset" />
          </mxGeometry>
        </mxCell>
        <mxCell id="drZaQz-W_NnIEaDeXwBa-4" value="arr[j] &amp;gt; arr[j-1]" style="rhombus;whiteSpace=wrap;html=1;" parent="WIyWlLk6GJQsqaUBKTNV-1" vertex="1">
          <mxGeometry x="140" y="400" width="160" height="80" as="geometry" />
        </mxCell>
        <mxCell id="drZaQz-W_NnIEaDeXwBa-20" style="edgeStyle=orthogonalEdgeStyle;rounded=0;orthogonalLoop=1;jettySize=auto;html=1;" parent="WIyWlLk6GJQsqaUBKTNV-1" source="drZaQz-W_NnIEaDeXwBa-11" target="drZaQz-W_NnIEaDeXwBa-16" edge="1">
          <mxGeometry relative="1" as="geometry" />
        </mxCell>
        <mxCell id="drZaQz-W_NnIEaDeXwBa-11" value="&lt;div&gt;temp =arr[j]&lt;/div&gt;&lt;div&gt;arr[j] = arr[j-1]&lt;/div&gt;&lt;div&gt;arr[j-1] = temp&lt;/div&gt;" style="rounded=0;whiteSpace=wrap;html=1;" parent="WIyWlLk6GJQsqaUBKTNV-1" vertex="1">
          <mxGeometry x="160" y="520" width="120" height="60" as="geometry" />
        </mxCell>
        <mxCell id="drZaQz-W_NnIEaDeXwBa-21" style="edgeStyle=orthogonalEdgeStyle;rounded=0;orthogonalLoop=1;jettySize=auto;html=1;exitX=0.5;exitY=1;exitDx=0;exitDy=0;entryX=0.5;entryY=0;entryDx=0;entryDy=0;" parent="WIyWlLk6GJQsqaUBKTNV-1" source="drZaQz-W_NnIEaDeXwBa-16" target="drZaQz-W_NnIEaDeXwBa-17" edge="1">
          <mxGeometry relative="1" as="geometry" />
        </mxCell>
        <mxCell id="drZaQz-W_NnIEaDeXwBa-16" value="j--" style="rounded=0;whiteSpace=wrap;html=1;" parent="WIyWlLk6GJQsqaUBKTNV-1" vertex="1">
          <mxGeometry x="160" y="630" width="120" height="40" as="geometry" />
        </mxCell>
        <mxCell id="drZaQz-W_NnIEaDeXwBa-22" style="edgeStyle=orthogonalEdgeStyle;rounded=0;orthogonalLoop=1;jettySize=auto;html=1;exitX=0;exitY=0.5;exitDx=0;exitDy=0;entryX=0;entryY=0.5;entryDx=0;entryDy=0;" parent="WIyWlLk6GJQsqaUBKTNV-1" source="drZaQz-W_NnIEaDeXwBa-17" target="drZaQz-W_NnIEaDeXwBa-4" edge="1">
          <mxGeometry relative="1" as="geometry" />
        </mxCell>
        <mxCell id="drZaQz-W_NnIEaDeXwBa-23" value="Yes" style="edgeLabel;html=1;align=center;verticalAlign=middle;resizable=0;points=[];" parent="drZaQz-W_NnIEaDeXwBa-22" vertex="1" connectable="0">
          <mxGeometry x="0.3839" relative="1" as="geometry">
            <mxPoint as="offset" />
          </mxGeometry>
        </mxCell>
        <mxCell id="drZaQz-W_NnIEaDeXwBa-24" style="edgeStyle=orthogonalEdgeStyle;rounded=0;orthogonalLoop=1;jettySize=auto;html=1;exitX=0.5;exitY=1;exitDx=0;exitDy=0;" parent="WIyWlLk6GJQsqaUBKTNV-1" source="drZaQz-W_NnIEaDeXwBa-17" edge="1">
          <mxGeometry relative="1" as="geometry">
            <mxPoint x="219.8275862068965" y="820" as="targetPoint" />
          </mxGeometry>
        </mxCell>
        <mxCell id="drZaQz-W_NnIEaDeXwBa-25" value="No" style="edgeLabel;html=1;align=center;verticalAlign=middle;resizable=0;points=[];" parent="drZaQz-W_NnIEaDeXwBa-24" vertex="1" connectable="0">
          <mxGeometry x="-0.3632" y="-1" relative="1" as="geometry">
            <mxPoint as="offset" />
          </mxGeometry>
        </mxCell>
        <mxCell id="drZaQz-W_NnIEaDeXwBa-17" value="j &amp;gt; n - 1 - i" style="rhombus;whiteSpace=wrap;html=1;" parent="WIyWlLk6GJQsqaUBKTNV-1" vertex="1">
          <mxGeometry x="155" y="700" width="130" height="80" as="geometry" />
        </mxCell>
        <mxCell id="drZaQz-W_NnIEaDeXwBa-31" style="edgeStyle=orthogonalEdgeStyle;rounded=0;orthogonalLoop=1;jettySize=auto;html=1;exitX=0.5;exitY=1;exitDx=0;exitDy=0;entryX=0.5;entryY=0;entryDx=0;entryDy=0;" parent="WIyWlLk6GJQsqaUBKTNV-1" source="drZaQz-W_NnIEaDeXwBa-26" target="drZaQz-W_NnIEaDeXwBa-27" edge="1">
          <mxGeometry relative="1" as="geometry" />
        </mxCell>
        <mxCell id="drZaQz-W_NnIEaDeXwBa-26" value="i--" style="rounded=0;whiteSpace=wrap;html=1;" parent="WIyWlLk6GJQsqaUBKTNV-1" vertex="1">
          <mxGeometry x="160" y="820" width="120" height="40" as="geometry" />
        </mxCell>
        <mxCell id="drZaQz-W_NnIEaDeXwBa-28" style="edgeStyle=orthogonalEdgeStyle;rounded=0;orthogonalLoop=1;jettySize=auto;html=1;exitX=0.5;exitY=1;exitDx=0;exitDy=0;entryX=0.5;entryY=0;entryDx=0;entryDy=0;" parent="WIyWlLk6GJQsqaUBKTNV-1" source="drZaQz-W_NnIEaDeXwBa-27" target="WIyWlLk6GJQsqaUBKTNV-11" edge="1">
          <mxGeometry relative="1" as="geometry" />
        </mxCell>
        <mxCell id="drZaQz-W_NnIEaDeXwBa-29" value="No" style="edgeLabel;html=1;align=center;verticalAlign=middle;resizable=0;points=[];" parent="drZaQz-W_NnIEaDeXwBa-28" vertex="1" connectable="0">
          <mxGeometry x="-0.4667" y="-2" relative="1" as="geometry">
            <mxPoint as="offset" />
          </mxGeometry>
        </mxCell>
        <mxCell id="drZaQz-W_NnIEaDeXwBa-32" style="edgeStyle=orthogonalEdgeStyle;rounded=0;orthogonalLoop=1;jettySize=auto;html=1;exitX=1;exitY=0.5;exitDx=0;exitDy=0;entryX=1;entryY=0.5;entryDx=0;entryDy=0;" parent="WIyWlLk6GJQsqaUBKTNV-1" source="drZaQz-W_NnIEaDeXwBa-27" target="drZaQz-W_NnIEaDeXwBa-1" edge="1">
          <mxGeometry relative="1" as="geometry">
            <Array as="points">
              <mxPoint x="360" y="920" />
              <mxPoint x="360" y="310" />
            </Array>
          </mxGeometry>
        </mxCell>
        <mxCell id="drZaQz-W_NnIEaDeXwBa-34" value="Yes" style="edgeLabel;html=1;align=center;verticalAlign=middle;resizable=0;points=[];" parent="drZaQz-W_NnIEaDeXwBa-32" vertex="1" connectable="0">
          <mxGeometry x="-0.9224" relative="1" as="geometry">
            <mxPoint as="offset" />
          </mxGeometry>
        </mxCell>
        <mxCell id="drZaQz-W_NnIEaDeXwBa-27" value="i &amp;gt; 0" style="rhombus;whiteSpace=wrap;html=1;" parent="WIyWlLk6GJQsqaUBKTNV-1" vertex="1">
          <mxGeometry x="155" y="880" width="130" height="80" as="geometry" />
        </mxCell>
      </root>
    </mxGraphModel>
  </diagram>
</mxfile>
